<svg width="558" height="262" viewBox="0 0 558 262" fill="none" xmlns="http://www.w3.org/2000/svg">
<path d="M261.996 138.965C268.173 149.702 268.704 163.446 263.509 174.655C260.032 177.334 255.717 179.031 251.545 180.525C242.279 183.817 232.094 186.681 222.747 183.613C222.379 190.792 219.27 197.541 214.546 202.879C139.423 207.236 64.0952 203.677 -11.0686 200.077C-37.1663 198.83 -63.4072 197.582 -88.9322 191.896C-93.0228 190.996 -97.3588 189.81 -100.12 186.66C-106.194 179.747 -100.365 168.232 -92.0819 164.203C-83.7986 160.195 -74.104 160.644 -65.1661 158.436C-65.3502 135.897 -41.1137 121.028 -18.9838 116.773C-11.2732 115.28 -2.82618 114.585 4.02549 118.43C5.02768 119.003 5.94805 119.698 6.78661 120.496C5.31401 111.967 6.39802 103.213 11.2862 96.1774C19.2832 84.683 39.3269 82.4741 46.7922 94.3367C41.5767 79.9584 42.538 62.4304 52.8053 51.0996C63.0726 39.7687 83.6685 38.1939 93.0767 50.261C89.7429 27.2517 107.189 5.08089 128.644 -3.89786C137.439 -7.5589 147.031 -9.39964 156.562 -9.25647H156.583C165.5 -5.32954 173.374 0.94944 178.753 9.11008C191.454 28.397 189.102 56.2537 173.313 73.1067C187.712 69.4048 204.217 77.77 209.76 91.5551C210.291 88.8758 211.784 86.4624 213.584 84.3966C223.013 73.6385 240.868 73.3112 252.751 81.2878C264.634 89.2439 271.057 103.52 272.918 117.714C260.462 108.797 241.932 109.594 230.274 119.555C243.2 120.189 255.553 127.756 261.996 138.965Z" fill="#99B2E9"/>
<path d="M517.07 219.289C510.014 220.311 502.753 220.516 495.636 220.638C492.65 220.7 489.541 220.761 486.923 222.172C484.182 223.624 482.362 226.304 480.276 228.615C466.92 243.32 443.747 241.807 424.153 238.494C406.053 235.446 388.116 231.683 370.158 227.797C361.548 225.915 352.098 225.752 343.263 223.911C312.338 227.02 281.373 228.042 250.714 223.972C252.044 224.074 253.312 224.136 254.559 224.115C293.583 223.563 333.241 218.409 372.019 214.114C377.828 213.48 383.943 212.703 388.688 209.267C392.963 206.158 395.54 201.311 398.69 197.056C407.628 185.01 422.619 177.319 437.591 178.424C452.542 179.508 466.736 189.98 471.011 204.358C482.771 197.711 498.663 198.611 508.91 207.385C512.611 210.555 515.371 214.728 517.07 219.289Z" fill="#99B2E9"/>
<path d="M327.937 122.596C325.626 121.981 323.061 120.641 322.949 118.295C322.877 116.788 323.884 115.399 324.953 114.258C330.662 108.156 339.728 105.219 347.793 106.858C349.983 107.304 352.123 108.062 354.381 108.071C359.7 108.091 364.155 104.095 368.291 100.671C373.835 96.0792 380.21 91.9579 387.322 91.0498C394.433 90.1417 402.322 93.3078 404.69 99.7504C407.357 107.003 402.017 115.538 394.804 119.275C387.59 123.011 379.137 123.081 371.138 122.635C357.665 121.882 340.806 126.024 327.937 122.596Z" fill="#E5E5E5"/>
<path d="M-74.8977 177.156C-82.3712 175.37 -92.121 180.412 -91.2436 188.045C-99.7417 181.271 -108.982 174.2 -119.826 173.503C-130.672 172.806 -142.715 181.899 -140.649 192.569C-139.05 200.83 -130.22 205.659 -121.941 207.158C-107.733 209.729 -93.2418 205.941 -78.8369 204.957C-43.198 202.525 -5.51794 217.031 27.2964 202.914C13.7997 188.591 -12.386 198.337 -29.237 197.557C-48.2478 196.678 -57.9158 181.24 -74.8977 177.156Z" fill="#566C9E"/>
<path d="M362.686 186.673C366.039 181.056 371.215 176.549 377.241 174.002C370.319 181.228 364.578 189.585 360.32 198.639C356.381 194.097 355.105 187.728 351.257 183.108C347.911 179.087 343.05 176.931 338.123 175.536C334.873 174.616 330.394 174.724 327.569 172.992C331.193 170.762 338.483 171.785 342.518 172.358C346.465 172.918 349.961 174.26 353.176 176.657C354.282 177.481 363.368 185.531 362.686 186.673Z" fill="#99B2E9"/>
<path d="M135.665 93.8498C143.28 90.0435 152.512 89.6263 160.44 92.729C168.367 95.8317 174.863 102.405 177.869 110.369C172.409 102.857 162.755 99.2943 153.471 99.0755C144.186 98.8566 135.099 101.536 126.257 104.375C128.748 96.6354 127.844 87.8694 123.829 80.803C121.984 77.5571 119.491 74.6897 116.575 72.3662C114.583 70.7791 111.361 69.7524 109.901 67.84C113.955 66.0913 121.001 68.9302 124.343 71.3211C131.55 76.4772 134.058 85.5889 135.665 93.8498Z" fill="#E5E5E5"/>
<path d="M348.859 202.777C333.028 203.738 317.218 205.272 301.449 207.195C275.985 198.237 247.393 200.814 220.129 202.552C218.268 202.675 216.407 202.777 214.545 202.879C219.27 197.541 222.379 190.792 222.747 183.613C232.094 186.681 242.279 183.817 251.544 180.525C255.717 179.031 260.032 177.334 263.509 174.655C263.284 175.166 263.039 175.657 262.793 176.148C273.183 176.148 282.489 166.248 281.835 155.899C297.052 163.733 307.851 179.543 309.61 196.539C322.106 189.667 339.103 192.367 348.859 202.777Z" fill="#566C9E"/>
<path d="M249.364 179.463C241.529 175.777 233.74 179.508 226.838 183.153C223.385 178.019 221.876 172.053 217.454 167.243C213.519 162.96 208.506 159.601 202.763 158.37C191.062 155.861 177.27 165.191 177.704 177.651C177.655 176.219 166.24 176.651 165.05 176.79C157.018 177.741 149.4 181.641 143.888 187.554C139.333 192.44 134.242 201.347 141.945 205.978C144.033 207.234 146.577 207.226 148.986 207.176C186.231 206.428 223.451 204.323 260.554 200.865C261.789 192.24 256.987 183.052 249.364 179.463Z" fill="#E5E5E5"/>
<path d="M556.933 181.594C555.787 171.081 548.138 162.348 539.548 156.171C522.695 144.084 500.769 139.298 480.419 143.307C468.904 145.577 457.982 150.649 448.676 157.808C447.163 157.255 445.608 156.805 444.054 156.437C422.947 151.304 399.999 154.003 380.65 163.882C366.845 149.442 345.881 142.223 326.123 145.106C337.27 133.571 339.254 114.243 330.664 100.683C322.053 87.1434 303.728 80.7008 288.552 85.8753C289.308 68.2655 288.449 47.3015 273.621 37.7705C264.417 31.8801 252.207 32.5755 242.144 36.8297C232.082 41.0838 223.696 48.4468 215.515 55.7075C219.278 34.6003 208.336 12.1227 190.317 0.505581C180.316 -5.93703 168.515 -9.12765 156.591 -9.25037C165.508 -5.32344 173.382 0.955555 178.761 9.1162C191.462 28.4031 189.11 56.2598 173.321 73.1128C187.72 69.4109 204.225 77.7761 209.768 91.5612C210.299 88.8819 211.793 86.4685 213.592 84.4027C223.021 73.6446 240.876 73.3173 252.759 81.2939C264.642 89.25 271.065 103.526 272.926 117.72C260.47 108.803 241.94 109.601 230.282 119.561C243.208 120.195 255.561 127.763 262.004 138.971C267.123 147.876 268.353 158.857 265.663 168.75C263.082 177.939 251.544 180.524 251.544 180.524C266.553 181.011 273.865 172.241 273.865 172.241L273.86 172.239C278.898 168.41 282.244 162.248 281.843 155.908C297.06 163.741 307.859 179.551 309.618 196.547C322.115 189.675 339.111 192.375 348.867 202.785C333.036 203.747 317.226 205.28 301.457 207.203C304.28 208.185 264.683 215.486 243.29 222.89C245.765 223.279 248.239 223.647 250.714 223.974C252.044 224.077 253.312 224.138 254.559 224.117C293.583 223.565 333.241 218.411 372.019 214.116C377.828 213.482 383.943 212.705 388.688 209.269C392.963 206.16 395.54 201.313 398.69 197.058C407.628 185.012 422.619 177.322 437.591 178.426C452.542 179.51 466.736 189.982 471.011 204.36C482.771 197.713 498.663 198.613 508.91 207.387C512.611 210.557 515.373 214.73 517.07 219.291C523.595 218.391 529.955 216.795 535.907 213.952C548.279 208.019 558.424 195.236 556.933 181.594Z" fill="#E5E5E5"/>
<path d="M279.82 93.4981L286.825 82.1202L287.697 82.6581L286.701 84.276C294.133 73.2622 295.765 58.2151 290.296 46.0846C283.839 31.7615 267.796 22.1753 252.099 23.2695C236.424 24.3719 221.863 36.1241 217.476 51.2141L216.476 51.0178C217.928 37.1876 217.397 26.9122 214.752 17.7023C211.396 6.01559 204.256 -3.41109 195.162 -8.15817C184.871 -13.5311 171.873 -12.2344 164.254 -5.07185L163.553 -5.81632C171.476 -13.2652 184.969 -14.6294 195.635 -9.06421C204.976 -4.18828 212.3 5.46541 215.734 17.4221C218.147 25.8282 218.828 35.0871 217.871 47.0336C223.561 33.4591 237.313 23.2859 252.025 22.251C268.126 21.1138 284.598 30.9659 291.227 45.6673C297.856 60.3687 294.319 79.2425 282.819 90.5488L279.82 93.4981Z" fill="#E5E5E5"/>
<path d="M388.066 111.699L387.972 110.68C388.353 110.633 388.723 110.582 389.089 110.529C390.699 110.179 392.192 109.269 393.218 107.979L394.018 108.617C393.662 109.065 393.257 109.472 392.813 109.834C399.653 108.234 403.516 105.295 404.322 101.066C404.989 97.5457 403.177 93.5206 399.475 90.2993C393.173 84.8179 383.481 82.7563 374.181 84.9161C366.282 86.7507 358.557 91.3444 351.221 98.5642C350.329 99.4416 349.222 100.532 347.778 100.683C346.727 100.802 345.739 100.376 344.864 100.008L344.621 99.9059C335.812 96.2347 324.959 98.3945 318.22 105.148L317.496 104.424C324.52 97.3861 335.84 95.1425 345.011 98.961L345.259 99.0653C346.091 99.4171 346.887 99.7566 347.67 99.6646C348.758 99.55 349.685 98.6399 350.501 97.8341C357.974 90.4793 365.863 85.7976 373.948 83.918C383.561 81.6866 393.601 83.8321 400.146 89.5282C404.126 92.9888 406.063 97.3739 405.326 101.256C404.298 106.668 398.896 110.124 389.265 111.537C388.87 111.621 388.467 111.674 388.066 111.699Z" fill="#E5E5E5"/>
<path d="M365.339 163.806L364.56 163.142C376.334 149.371 392.594 139.807 410.351 136.216C418.743 134.518 425.701 134.622 431.626 136.52C443.556 140.343 451.365 151.122 458.966 162.778L458.111 163.336C450.615 151.84 442.924 141.212 431.313 137.494C425.554 135.647 418.762 135.555 410.554 137.216C393.022 140.764 376.962 150.207 365.339 163.806Z" fill="#E5E5E5"/>
<path d="M143.984 202.892C137.821 202.501 131.847 200.484 126.709 197.061C125.345 196.152 123.85 194.999 123.104 193.334C122.398 191.765 122.382 189.853 123.052 187.491C125.715 178.123 134.735 172.624 142.29 170.601C150.723 168.343 159.481 168.997 167.971 169.699C167.539 160.663 176.416 154.132 184.036 150.216C188.141 148.103 192.52 146.319 196.74 147.565C200.225 148.594 202.724 151.539 204.299 153.664C209.226 160.311 212.171 168.308 212.777 176.536L213.137 174.994L214.133 175.227L211.772 185.329L211.862 180.492C212.038 171.118 209.058 161.806 203.477 154.273C201.988 152.267 199.642 149.489 196.449 148.547C192.58 147.401 188.421 149.111 184.505 151.126C176.994 154.987 168.214 161.432 169.032 170.212L169.087 170.818L168.48 170.769C159.894 170.061 151.015 169.327 142.554 171.593C135.271 173.544 126.583 178.817 124.036 187.773C123.435 189.896 123.435 191.577 124.038 192.919C124.68 194.346 126.036 195.385 127.278 196.214C132.266 199.537 138.067 201.495 144.051 201.875L143.984 202.892Z" fill="#E5E5E5"/>
<path d="M544.401 185.026L543.642 184.339C548.39 179.101 549.813 170.625 547.269 162.749C545.219 156.407 540.863 150.299 533.954 144.08C521.877 133.203 507.4 126.517 493.188 125.251C477.255 123.836 461.727 129.319 451.673 139.93C451.3 140.32 450.93 140.723 450.556 141.13C447.701 144.221 444.751 147.416 440.593 147.698C438.671 147.827 436.832 147.272 435.049 146.736L434.333 146.524C412.172 140.026 385.893 150.668 374.513 170.764L373.621 170.261C385.228 149.768 412.027 138.915 434.619 145.544L435.343 145.759C437.039 146.27 438.796 146.792 440.524 146.679C444.275 146.424 447.085 143.38 449.803 140.437C450.182 140.028 450.554 139.623 450.928 139.228C461.197 128.392 477.036 122.782 493.278 124.234C507.707 125.519 522.394 132.297 534.635 143.321C541.683 149.665 546.134 155.918 548.24 162.436C550.895 170.654 549.388 179.52 544.401 185.026Z" fill="#E5E5E5"/>
<path d="M141.091 93.7722L140.103 93.5124C142.198 85.5604 138.33 76.1787 130.906 71.2087C124.103 66.6559 114.801 65.6292 106.017 68.4598L105.704 67.4863C114.781 64.5595 124.416 65.6312 131.476 70.3599C139.248 75.5672 143.292 85.4131 141.091 93.7722Z" fill="#E5E5E5"/>
<path d="M281.033 126.296C276.337 111.973 260.388 102.156 245.488 104.408C241.046 105.08 237.581 106.621 235.193 108.987C232.352 111.799 231.27 116 232.56 119.201L231.611 119.586C230.147 115.957 231.296 111.406 234.473 108.261C237.019 105.739 240.674 104.103 245.335 103.399C260.701 101.07 277.162 111.202 282.007 125.979L281.033 126.296Z" fill="#E5E5E5"/>
<path d="M10.5499 130.655L10.0058 130.26C-2.29239 121.332 -7.22559 103.996 -1.46814 89.9311C-0.834108 88.3849 0.106714 86.4644 1.77975 85.3354C3.56323 84.1328 5.79462 84.0346 7.94625 84.0959C18.3035 84.415 28.7119 87.667 37.4391 93.2813C32.4834 80.2406 31.3606 69.2268 34.0031 59.661C36.9994 48.819 47.1419 37.7173 60.1314 38.5354C70.2289 39.1633 79.1402 46.6694 86.673 60.8718C82.8094 46.3381 82.1345 33.5511 84.599 21.9298C87.9615 6.07486 98.0345 -7.30942 110.887 -13.0014C125.48 -19.4665 143.454 -15.153 151.807 -3.18205L150.968 -2.59711C142.887 -14.1815 125.464 -18.3396 111.3 -12.0667C98.7442 -6.50358 88.8962 6.60253 85.6012 22.1425C82.8626 35.0543 84.0611 49.451 89.2643 66.1507L88.3112 66.5148C80.4349 49.3017 70.9325 40.2309 60.0701 39.556C48.1093 38.8074 37.9218 49.3324 34.9909 59.931C32.3075 69.642 33.6124 80.9196 38.9772 94.4102L39.5969 95.9708L38.2122 95.0218C29.3787 88.9657 18.6185 85.4479 7.91557 85.1186C5.94393 85.0531 3.89865 85.1431 2.35242 86.1842C0.914594 87.1536 0.0923964 88.8185 -0.521186 90.3177C-5.92889 103.526 -1.27589 120.383 10.0652 129.029L14.2743 117.737L15.2336 118.095L10.5499 130.655Z" fill="#99B2E9"/>
<path d="M436.535 262C434.228 262 431.778 261.865 429.178 261.595C417.817 260.419 406.658 257.738 396.006 253.629C392.282 252.191 388.565 250.557 384.976 248.978C379.63 246.626 374.101 244.194 368.462 242.38C353.769 237.659 338.057 237.001 323.025 240.478L322.793 239.482C338.01 235.964 353.908 236.63 368.773 241.406C374.463 243.235 380.016 245.677 385.387 248.041C388.968 249.616 392.672 251.246 396.374 252.674C406.942 256.75 418.013 259.411 429.283 260.577C442.479 261.941 451.725 259.81 457.585 254.056C467.431 244.382 464.521 228.124 460.344 216.188L461.312 215.851C465.586 228.067 468.531 244.738 458.301 254.786C453.384 259.619 446.224 262 436.535 262Z" fill="#99B2E9"/>
<path d="M210.803 97.787L209.827 97.4802C213.265 86.5707 207.825 73.3624 197.703 68.0385C187.581 62.7147 173.616 65.7151 166.574 74.7286L165.768 74.0987C173.098 64.7129 187.642 61.5877 198.177 67.1325C208.719 72.6772 214.382 86.4276 210.803 97.787Z" fill="#99B2E9"/>
<path d="M11.9545 223.582L11.6027 222.62C21.9559 218.835 32.3786 214.787 42.5805 210.592C48.4852 208.164 51.3608 205.24 51.1318 201.902C50.9866 199.789 49.4812 197.932 48.3625 196.717C37.1196 184.529 18.843 183.472 1.088 183.433C-8.23437 183.419 -19.8556 183.388 -28.636 189.252L-29.0328 189.518L-29.3252 189.137C-36.0481 180.377 -45.0248 174.994 -53.9503 174.37C-64.3751 173.634 -74.2783 180.134 -76.524 189.154L-77.516 188.906C-75.1537 179.42 -64.7842 172.579 -53.8788 173.35C-44.7896 173.988 -35.6738 179.369 -28.8037 188.141C-19.8188 182.365 -8.24664 182.384 1.09208 182.412C19.0741 182.451 37.5941 183.533 49.1151 196.026C50.3402 197.351 51.9867 199.396 52.1544 201.832C52.4182 205.659 49.3278 208.925 42.9711 211.539C32.755 215.738 22.32 219.792 11.9545 223.582Z" fill="#566C9E"/>
<path d="M318.182 199.713L318.014 198.073C317.271 190.802 316.429 182.56 312.453 175.845C308.775 169.629 301.118 164.393 293.587 166.408C290.836 167.142 288.368 168.795 286.637 171.057L285.823 170.435C287.691 167.993 290.351 166.212 293.321 165.418C301.333 163.271 309.456 168.774 313.332 175.321C317.12 181.721 318.132 189.37 318.861 196.326L320.898 192.587L321.796 193.076L318.182 199.713Z" fill="#566C9E"/>
</svg>
