<svg width="762" height="346" viewBox="0 0 762 346" fill="none" xmlns="http://www.w3.org/2000/svg">
<path d="M591.317 244.624C542.259 258.846 489.719 241.351 438.405 239.867C403.363 238.842 368.575 245.392 333.787 249.638C284.677 255.572 235.052 257.004 185.684 253.832C168.495 252.706 145.576 243.755 149.412 227.025C151.254 218.991 159.082 213.929 166.5 210.399C181.386 203.289 197.553 198.786 214.027 197.251C198.22 181.851 201.851 153.355 217.71 138.011C233.568 122.664 257.665 118.675 279.51 121.642C284.829 79.2308 316.139 42.5524 355.326 26.3849C364.586 28.9423 373.488 33.5982 381.828 41.2737C401.063 58.9736 408.019 88.7478 398.711 113.202C419.277 100.617 447.669 108.446 464.347 125.788C481.074 143.182 488.134 167.685 491.307 191.524C515.81 176.688 550.087 180.27 571.012 199.964C583.235 211.42 590.292 227.845 591.317 244.624Z" fill="#556CA1"/>
<path d="M409.468 155.235C394.072 132.424 358.842 126.26 336.615 142.494C325.26 126.093 307.178 115.308 288.206 109.14C286.271 108.515 284.315 107.952 282.355 107.403C281.528 110.475 280.868 113.591 280.319 116.74C303.529 127.789 323.953 143.453 336.09 167.935C354.989 149.53 385.479 144.252 409.468 155.235Z" fill="#101E3D"/>
<path d="M681.967 146.913C672.349 142.768 661.453 143.126 650.966 143.536C623.183 144.613 591.505 151.375 564.687 148.036C567.669 144.05 570.07 139.717 571.452 134.877C573.582 127.417 573.099 119.425 571.498 111.833C564.569 79.0153 518.065 35.6691 484.02 60.4503C465.875 37.872 442.185 22.1875 407.05 17.7921C389.298 16.3605 371.65 19.5816 355.33 26.3849C364.59 28.9423 373.491 33.5982 381.827 41.2737C401.063 58.9736 408.019 88.7478 398.71 113.202C419.277 100.617 447.668 108.446 464.347 125.788C481.073 143.182 488.134 167.685 491.306 191.524C515.81 176.688 550.087 180.27 571.011 199.964C583.238 211.424 590.295 227.845 591.32 244.624C592.342 244.367 593.419 244.009 594.441 243.703C603.037 240.941 611.63 236.948 617.054 229.787C622.478 222.574 623.6 211.524 617.516 204.926C640.177 207.841 663.916 202.369 682.999 189.731C689.702 185.332 696.3 179.398 697.731 171.469C699.566 161.135 691.637 151.107 681.967 146.913Z" fill="#101E3D"/>
<path d="M750.609 304.86C750.254 307.292 749.372 309.725 747.513 311.316C745.612 312.908 743.003 313.349 740.57 313.703C709.573 318.213 678.402 319.937 647.099 320.336C642.016 306.806 630.872 295.576 617.21 290.712C600.851 284.919 581.529 288.589 568.44 299.909C568.527 289.784 560.97 280.1 551.109 277.668C541.07 275.235 531.035 280.496 525.598 288.856C523.079 272.32 517.728 262.105 509.944 256.403C518.256 255.03 526.967 256.139 534.618 259.676C533.513 247.205 541.647 235.135 552.613 229.078C575.518 216.344 604.479 225.763 624.82 239.294C644.406 252.247 661.873 275.284 688.225 271.969C698.35 270.687 708.475 270.555 718.513 272.543C726.738 274.179 734.962 277.098 741.283 282.581C747.648 288.102 751.849 296.549 750.609 304.86Z" fill="#101E3D"/>
<path d="M647.099 320.336C567.112 321.441 486.462 314.322 407.313 325.997C403.335 326.57 399.179 327.234 395.288 325.997C391.441 324.76 388.036 321.045 388.655 317.067C388.964 314.944 390.291 313.13 391.705 311.493C401.389 300.527 416.202 295.135 430.792 293.853C445.34 292.616 459.975 295.048 474.433 297.522C474.61 283.418 482.303 269.711 494.197 262.192C498.971 259.228 504.367 257.24 509.937 256.399C517.72 262.105 523.071 272.317 525.59 288.853C531.028 280.496 541.066 275.236 551.101 277.664C560.962 280.097 568.523 289.78 568.433 299.905C581.522 288.585 600.844 284.916 617.203 290.708C630.872 295.576 642.015 306.806 647.099 320.336Z" fill="#556CA1"/>
<path d="M100.224 164.891C83.8449 173.606 75.7176 196.434 85.2833 212.33C61.7565 199.617 28.1046 214.262 21.3777 240.148C20.2519 244.478 20.3179 250.096 24.2443 252.24C26.0198 253.21 28.1498 253.032 30.172 253.109C168.578 258.543 213.539 255.725 258.331 256.219C262.111 248.696 260.114 238.821 253.953 233.081C247.792 227.344 238.074 225.979 230.405 229.457C227.382 230.829 224.422 232.921 221.111 232.667C216.163 232.289 213.31 227.125 210.12 223.321C197.459 208.223 181.239 215.121 168.084 223.62C165.343 205.843 169.828 192.793 156.027 177.264C142.556 162.104 118.852 154.981 100.224 164.891Z" fill="#94A6CE"/>
<path d="M733.989 182.921L732.252 182.82C733.978 152.56 703.753 127.841 674.437 123.741C643.481 119.394 612.62 130.94 585.375 141.107L583.919 141.649L584.218 140.124C589.784 111.607 580.618 82.3231 560.872 65.5197C539.169 47.052 505.67 46.503 486.198 64.2967L484.898 65.4816L484.746 63.7303C482.4 37.0242 462.904 12.7538 437.331 4.70307C411.768 -3.34768 381.875 5.37713 364.655 25.9227L363.324 24.8073C380.986 3.7371 411.636 -5.21356 437.852 3.04914C463.533 11.1346 483.241 35.1757 486.302 61.8853C506.56 44.6789 540.118 45.5788 561.994 64.1959C581.859 81.1035 591.271 110.298 586.198 138.939C613.287 128.838 643.839 117.698 674.67 122.014C704.635 126.208 735.83 150.683 733.989 182.921Z" fill="#101E3D"/>
<path d="M738.6 301.069C735.136 301.069 731.706 300.715 728.489 300.381L728.666 298.651C734.906 299.301 741.977 300.034 748.298 297.998C753.847 296.208 759.865 291.219 759.966 284.478C760.014 281.337 758.743 277.952 756.185 274.426C746.741 261.417 729.67 257.494 717.016 256.493C701.605 255.277 685.73 257.233 671.081 262.167L670.348 262.41L670.017 261.715C663.113 247.146 649.642 236.149 633.982 232.303C618.315 228.442 601.292 231.955 588.419 241.656L587.373 240.273C600.664 230.249 618.249 226.635 634.395 230.614C650.306 234.526 664.027 245.586 671.251 260.277C685.914 255.451 701.769 253.533 717.148 254.763C730.171 255.791 747.756 259.863 757.589 273.408C760.372 277.244 761.755 280.975 761.703 284.502C761.588 292.098 754.948 297.678 748.829 299.648C745.508 300.718 742.04 301.069 738.6 301.069Z" fill="#101E3D"/>
<path d="M342.411 148.213L342.689 146.875C345.681 132.504 338.794 116.475 326.31 108.762C313.825 101.038 296.407 102.045 284.895 111.145L283.815 109.78C295.886 100.249 314.138 99.196 327.224 107.285C339.92 115.131 347.095 131.191 344.639 145.902L350.671 144.485L351.07 146.173L342.411 148.213Z" fill="#101E3D"/>
<path d="M586.936 163.574L585.688 162.369L592.575 154.485C601.314 142.261 606.022 125.204 606.911 102.726C607.429 89.6374 607.009 72.8548 599.055 59.1404C590.442 44.2863 573.367 33.8902 552.21 30.6205C520.591 25.7282 487.47 37.2953 465.775 60.8117L464.5 59.6338C486.581 35.7005 520.268 23.9145 552.474 28.9006C574.152 32.2536 591.675 42.959 600.553 58.2683C608.732 72.3719 609.173 89.4741 608.645 102.796C607.759 125.096 603.148 142.184 594.604 154.617L594.694 154.693L593.941 155.558C591.838 158.498 589.503 161.163 586.936 163.574Z" fill="#101E3D"/>
<path d="M636.466 311.483L634.736 311.326C635.806 299.634 630.462 287.487 621.119 280.374C611.772 273.265 598.631 271.347 587.654 275.499C587.102 275.708 586.543 275.93 585.98 276.156C582.335 277.605 578.217 279.245 574.423 277.556C572.773 276.816 571.511 275.562 570.295 274.349C569.906 273.964 569.513 273.571 569.114 273.206C562.012 266.677 549.489 266.198 539.958 272.077C532.112 276.924 525.882 285.409 521.442 297.31L519.812 296.698C524.392 284.433 530.865 275.649 539.048 270.597C547.901 265.135 561.48 263.835 570.285 271.927C570.702 272.31 571.108 272.716 571.515 273.119C572.672 274.273 573.763 275.364 575.128 275.968C578.231 277.365 581.845 275.927 585.33 274.54C585.903 274.315 586.473 274.085 587.036 273.873C598.565 269.52 612.356 271.535 622.161 278.995C631.977 286.458 637.589 299.214 636.466 311.483Z" fill="#556CA1"/>
<path d="M597.411 218.303C594.617 197.056 577.373 178.415 556.407 173.981C540.218 170.562 509.655 170.193 495.493 180.27C493.63 181.597 492.119 183.067 490.969 184.672C489.951 190.538 488.589 195.937 487.157 200.666L485.465 200.305L486.629 191.08C486.955 188.505 487.855 186.135 489.322 183.984C491.757 169.641 492.06 152.546 486.08 135.822C478.314 114.113 460.329 97.5873 440.267 93.7235C418.067 89.4497 394.638 102.052 387.998 121.799L386.347 121.243C393.258 100.697 417.612 87.5942 440.59 92.0175C461.247 95.9959 479.749 112.959 487.716 135.239C493.418 151.177 493.523 167.417 491.49 181.375C492.376 180.489 493.373 179.648 494.485 178.852C509.065 168.477 540.26 168.793 556.765 172.282C576.396 176.43 592.873 192.636 597.936 211.983L599.544 212.087L599.138 218.244L597.411 218.303Z" fill="#556CA1"/>
<path d="M193.508 207.174C186.945 188.734 185.989 168.14 190.823 149.179C195.722 129.919 210.26 111.062 228.898 111.062C229.509 111.062 230.121 111.079 230.739 111.125C247.925 112.264 259.69 128.359 268.019 142.25L266.525 143.147C258.415 129.613 247.004 113.946 230.621 112.855C212.091 111.66 197.386 130.412 192.501 149.606C187.754 168.237 188.693 188.477 195.142 206.59L193.508 207.174Z" fill="#556CA1"/>
<path d="M391.508 346C385.083 346 378.7 345.368 372.415 343.766C367.769 342.581 365.052 340.667 364.096 337.908C363.231 335.406 364.062 332.723 364.993 330.43C376.977 300.764 413.037 283.373 443.714 292.407L443.224 294.075C413.332 285.256 378.266 302.209 366.598 331.08C365.75 333.179 365.059 335.385 365.736 337.338C366.484 339.502 368.808 341.052 372.839 342.081C390.757 346.636 409.673 343.134 427.971 339.735C430.49 339.266 432.995 338.804 435.497 338.359C477.915 330.816 521.116 329.589 563.902 334.707L563.697 336.431C521.077 331.334 478.051 332.56 435.799 340.069C433.301 340.514 430.796 340.979 428.287 341.445C416.167 343.7 403.766 346 391.508 346Z" fill="#556CA1"/>
<path d="M39.8285 240.645C35.6241 240.645 31.4303 240.274 27.3267 239.52C20.843 238.331 16.8889 235.774 15.572 231.91C14.6617 229.242 15.2524 226.375 15.8639 224.179C21.5345 203.87 44.1961 190.232 64.7799 194.478C64.0224 176.795 69.5576 153.97 87.7612 146.135C95.2143 142.928 104.21 142.535 114.495 144.968C132.264 149.179 147.89 160.593 156.292 175.506C165.211 191.333 165.816 211.434 157.831 226.719L156.292 225.913C164.012 211.139 163.418 191.684 154.78 176.361C146.611 161.861 131.403 150.756 114.096 146.656C104.186 144.311 95.5548 144.676 88.4457 147.73C70.6729 155.378 65.5548 178.255 66.5729 195.524L66.6423 196.691L65.5026 196.42C45.4991 191.622 23.0703 204.822 17.5387 224.648C16.9897 226.604 16.4616 229.13 17.2121 231.351C18.3101 234.575 21.816 236.75 27.636 237.81C40.1795 240.117 53.602 238.766 65.4297 234.016L66.076 235.631C57.8202 238.946 48.8035 240.645 39.8285 240.645Z" fill="#94A6CE"/>
<path d="M273.738 261.507C273.251 261.507 272.769 261.476 272.282 261.42L267.536 260.857L280.01 257.793C280.795 257.275 281.545 256.653 282.261 255.937C285.844 252.344 287.779 246.914 287.195 242.101C285.941 231.778 276.813 224.419 271.483 220.951C256.587 211.25 233.919 209.28 223.272 222.984L222.688 223.738L221.994 223.084C213.105 214.777 198.595 216.955 189.45 223.23C179.328 230.176 173.018 241.378 167.449 251.257L165.934 250.402C171.316 240.854 178.011 228.97 188.463 221.795C197.935 215.298 212.887 212.994 222.484 221.191C234.082 207.299 256.81 209.332 272.432 219.488C279.249 223.925 287.647 231.417 288.919 241.886C289.565 247.205 287.435 253.203 283.488 257.16C282.838 257.807 282.161 258.387 281.459 258.898L281.532 259.203L280.708 259.405C278.543 260.784 276.163 261.507 273.738 261.507Z" fill="#94A6CE"/>
<path d="M18.1777 249.38C16.8504 249.38 15.4884 249.137 14.1159 248.647C9.50501 247.004 5.06448 242.643 2.80249 237.542C-2.11413 226.455 -0.453267 212.539 6.93383 202.918C14.1124 193.571 26.6142 188.394 38.2995 189.853C38.296 173.168 50.8985 156.972 68.018 151.892C83.9528 147.15 103.112 151.861 116.844 163.873C129.13 174.634 137.445 190.774 140.249 209.332L138.532 209.589C135.788 191.437 127.678 175.666 115.697 165.183C102.414 153.553 83.8902 149.005 68.5149 153.553C51.7776 158.526 39.5399 174.547 40.0576 190.826L40.0924 191.875L39.0534 191.712C27.6844 189.905 15.3286 194.842 8.31327 203.974C1.30144 213.105 -0.276042 226.312 4.39041 236.834C6.46824 241.524 10.5161 245.517 14.6996 247.007C17.3577 247.956 19.8525 247.848 22.1041 246.705L22.8928 248.251C21.4126 249.005 19.8213 249.38 18.1777 249.38Z" fill="#94A6CE"/>
</svg>
