<svg width="48" height="48" viewBox="0 0 48 48" fill="none" xmlns="http://www.w3.org/2000/svg">
<path d="M44.0001 33.84V39.84C44.0024 40.397 43.8883 40.9483 43.6651 41.4587C43.442 41.9691 43.1147 42.4272 42.7043 42.8037C42.2938 43.1803 41.8093 43.467 41.2816 43.6454C40.754 43.8239 40.1949 43.8901 39.6401 43.84C33.4858 43.1713 27.5741 41.0683 22.3801 37.7C17.5478 34.6293 13.4508 30.5324 10.3801 25.7C7.00007 20.4824 4.8966 14.542 4.24011 8.36001C4.19013 7.80694 4.25586 7.24953 4.43311 6.72326C4.61036 6.19699 4.89525 5.71339 5.26964 5.30325C5.64403 4.89312 6.09972 4.56543 6.60769 4.34105C7.11566 4.11668 7.66479 4.00053 8.22011 4.00001H14.2201C15.1907 3.99046 16.1317 4.33417 16.8676 4.96708C17.6036 5.59998 18.0843 6.4789 18.2201 7.44001C18.4734 9.36014 18.943 11.2455 19.6201 13.06C19.8892 13.7759 19.9474 14.5538 19.7879 15.3018C19.6284 16.0497 19.2578 16.7362 18.7201 17.28L16.1801 19.82C19.0272 24.8271 23.173 28.9729 28.1801 31.82L30.7201 29.28C31.2639 28.7423 31.9504 28.3717 32.6983 28.2122C33.4463 28.0527 34.2243 28.1109 34.9401 28.38C36.7547 29.0571 38.64 29.5268 40.5601 29.78C41.5316 29.9171 42.4189 30.4064 43.0532 31.155C43.6874 31.9036 44.0244 32.8592 44.0001 33.84Z" stroke="#3C588E" stroke-width="4" stroke-linecap="round" stroke-linejoin="round"/>
</svg>
