<svg width="361" height="201" viewBox="0 0 361 201" fill="none" xmlns="http://www.w3.org/2000/svg">
<path d="M353.568 149.551C352.3 152.31 349.34 153.82 346.501 154.907C331.863 160.545 315.694 160.183 300.049 159.095C292.277 158.552 284.505 157.847 276.753 157.082C276.351 151.746 275.384 146.531 273.31 141.618C269.182 131.712 259.377 123.336 248.705 124.403C262.578 108.879 267.451 85.4013 259.437 66.1925C251.403 46.9837 230.141 33.7348 209.502 36.4933C188.884 39.272 171.447 58.8835 172.575 79.6628C161.058 71.2463 143.117 73.5417 134.117 84.616C132.949 71.6692 125.237 58.9237 113.176 54.0712C111.304 53.3262 109.351 52.8027 107.357 52.5208C107.498 52.4201 107.639 52.3396 107.8 52.259C120.083 45.8561 136.654 49.3395 145.332 60.152C146.742 51.4536 151.534 43.6413 157.333 37.0168C181.535 9.33122 225.691 1.59938 257.846 19.4189C290.022 37.2585 306.875 78.7768 296.224 113.993C307.358 108.355 321.151 108.315 332.306 113.892C343.481 119.47 351.736 130.504 353.931 142.786C354.354 145.041 354.535 147.457 353.568 149.551Z" fill="#101E3D"/>
<path d="M276.753 157.082C253.497 154.766 230.282 151.867 206.925 151.041C177.508 149.994 148.05 152.229 118.613 152.773C91.4305 153.256 64.208 152.31 37.1063 149.894C32.9183 149.531 28.5489 149.068 24.9246 146.894C21.3205 144.699 18.6828 140.289 19.9513 136.242C22.4279 128.248 55.3486 132.839 60.4226 122.53C65.7383 111.798 53.2949 99.6568 68.2954 90.5155C75.4635 86.1663 84.4639 86.7905 92.7998 87.5557C88.9338 74.4276 95.3569 59.0646 107.357 52.5208C109.351 52.8026 111.304 53.3262 113.176 54.0711C125.237 58.9237 132.949 71.6691 134.117 84.616C143.117 73.5417 161.057 71.2463 172.575 79.6627C171.447 58.8834 188.884 39.2719 209.502 36.4933C230.141 33.7348 251.403 46.9836 259.437 66.1924C267.451 85.4012 262.578 108.879 248.705 124.403C259.377 123.336 269.182 131.712 273.31 141.618C275.384 146.531 276.35 151.746 276.753 157.082Z" fill="#556CA1"/>
<path d="M77.491 135.312C87.2726 137.97 95.836 144.832 100.56 153.798C99.3516 151.502 49.9604 154.478 44.0729 154.13C32.5456 153.445 16.4718 155.827 11.7925 142.766C1.44307 113.878 39.5667 115.729 48.4362 139.156C57.5654 134.69 67.4296 132.577 77.491 135.312Z" fill="#94A6CE"/>
<path d="M225.091 123.462C230.978 121.449 237.204 120.43 243.424 120.462C240.548 117.794 236.495 116.675 232.573 116.663C229.436 116.653 225.282 118.761 222.405 118.356C217.878 117.72 220.105 117.996 216.684 114.339C216.684 114.339 208.063 93.0445 188.6 93.0445C206.438 100.134 215.607 118.268 216.63 129.332C218.67 126.306 221.7 124.622 225.091 123.462Z" fill="#101E3D"/>
<path d="M311.981 130.614C307.91 127.123 292.99 134.752 289.492 136.997C283.241 141.012 280.174 147.171 275.056 151.851C262.389 135.008 298.95 119.439 311.981 130.614Z" fill="#556CA1"/>
<path d="M303.818 187.222C276.918 187.176 249.419 181.453 224.223 190.417C221.593 184.753 222.157 177.724 225.67 172.57C229.264 167.315 234.006 165.655 237.546 161.427C240.355 163.263 243.649 165.359 246.989 168.42C245.654 160.293 255.277 153.129 263.164 155.501C271.071 157.871 275.434 167.331 273.668 175.375C280.745 170.079 291.431 172.674 297.749 178.86C300.22 181.302 302.189 184.151 303.818 187.222Z" fill="#556CA1"/>
<path d="M327.219 184.329C324.871 185.772 322.054 186.211 319.298 186.509C314.165 187.063 309.013 187.252 303.818 187.222C302.189 184.151 300.22 181.302 297.749 178.86C291.431 172.674 280.745 170.079 273.668 175.375C275.433 167.331 271.07 157.871 263.163 155.501C255.276 153.129 245.652 160.293 246.989 168.42C243.648 165.359 240.354 163.263 237.545 161.427C238.105 160.738 238.645 159.971 239.142 159.122C244.186 150.476 243.431 145.083 255.558 142.677C259.259 141.95 263.123 141.747 266.753 142.693C277.521 145.49 283.206 156.955 287.533 167.2C288.968 161.232 297.375 159.492 302.708 162.522C308.042 165.573 310.935 171.497 313.505 177.058C314.211 173.933 317.767 172.322 320.967 172.022C325.072 171.615 330.116 173.359 330.843 177.422C331.322 180.138 329.566 182.867 327.219 184.329Z" fill="#101E3D"/>
<path d="M286.395 110.787L285.519 110.292L288.711 104.248L288.808 104.298C301.511 78.5775 302.644 42.0466 279.791 19.2397C263.86 3.33705 238.22 -2.86453 214.483 3.43369C193.192 9.08559 173.361 24.4627 160.076 45.6226L159.223 45.087C172.641 23.7117 192.689 8.17549 214.221 2.45916C238.301 -3.92968 264.317 2.37459 280.5 18.5269C305.552 43.5245 302.234 84.7187 286.395 110.787Z" fill="#101E3D"/>
<path d="M346.432 148.086C346.144 148.086 345.856 148.075 345.568 148.055L345.639 147.051C349.229 147.304 352.966 145.818 355.827 142.979C358.686 140.138 360.197 136.435 359.971 132.819C359.796 130.035 358.733 127.065 356.721 123.74C350.349 113.208 338.779 105.897 326.531 104.662C314.277 103.432 301.485 108.281 293.137 117.327L292.398 116.645C300.957 107.371 314.073 102.399 326.634 103.662C339.19 104.926 351.049 112.422 357.583 123.219C359.681 126.686 360.791 129.805 360.976 132.755C361.221 136.661 359.605 140.646 356.538 143.692C353.697 146.513 350.057 148.086 346.432 148.086Z" fill="#101E3D"/>
<path d="M283.166 109.831L285.65 101.318L286.357 101.525C293.332 86.8992 295.841 71.1215 293.426 56.6947C290.549 39.5256 280.538 24.4767 266.643 16.4388C251.799 7.85325 232.78 8.01433 219.306 16.8435L218.756 16.0019C232.534 6.96932 251.985 6.79415 267.146 15.569C281.299 23.7539 291.494 39.0665 294.417 56.5276C297.065 72.3416 293.884 89.7443 285.461 105.53L283.166 109.831Z" fill="#101E3D"/>
<path d="M218.249 120.712L218.468 119.703C220.401 110.872 218.534 102.158 213.477 96.3929C207.823 89.9538 197.908 88.1033 191.362 92.2673L190.825 91.4176C197.761 87 208.268 88.9309 214.232 95.7285C219.31 101.515 221.309 110.121 219.654 118.92C226.715 115.533 234.647 111.851 242.982 110.9C252.597 109.805 261.68 112.918 266.685 119.021L265.906 119.659C261.114 113.814 252.371 110.84 243.095 111.899C234.568 112.871 226.391 116.8 219.177 120.265L218.249 120.712Z" fill="#101E3D"/>
<path d="M347.102 191.356L346.532 190.526C347.904 189.584 349.241 188.513 349.736 187.063C350.163 185.81 349.927 184.397 349.607 183.054C348.715 179.301 346.329 172.517 340.381 169.249C334.874 166.225 328.21 167.127 321.766 167.999L320.474 168.172C319.189 168.343 317.878 168.38 316.976 167.51C316.382 166.94 316.171 166.149 315.986 165.448L315.925 165.224C313.932 157.883 306.421 153.86 300.061 152.543C296.537 151.815 291.485 151.46 287.44 153.921C284.005 156.011 281.579 160.851 283.443 164.731L282.535 165.168C280.369 160.654 283.123 155.37 286.919 153.063C291.244 150.429 296.565 150.794 300.266 151.559C306.921 152.938 314.784 157.181 316.898 164.961L316.958 165.19C317.125 165.818 317.282 166.408 317.673 166.783C318.269 167.357 319.312 167.308 320.341 167.171L321.631 166.998C328.238 166.106 335.072 165.18 340.866 168.363C347.157 171.819 349.657 178.904 350.588 182.82C350.942 184.31 351.198 185.893 350.688 187.387C350.1 189.117 348.616 190.317 347.102 191.356Z" fill="#101E3D"/>
<path d="M158.639 61.9983C158.186 61.9983 157.58 61.7607 156.889 60.8728C149.637 51.5402 141.758 45.7111 133.468 43.5466C124.637 41.2392 112.933 43.5829 107.643 52.5228L106.777 52.0094C112.325 42.6385 124.534 40.17 133.724 42.5721C142.233 44.795 150.293 50.7429 157.683 60.2546C157.775 60.3734 157.878 60.4902 157.981 60.5949C158.049 60.1661 158.357 59.9929 158.605 59.9748C159.076 59.9566 159.517 60.4077 159.64 60.8627C159.755 61.2876 159.581 61.6822 159.197 61.8695C159.058 61.9379 158.869 61.9983 158.639 61.9983ZM158.025 60.6412C158.216 60.8245 158.412 60.9614 158.579 60.9876C158.569 60.9775 158.557 60.9674 158.546 60.9614C158.581 60.9815 158.685 60.9996 158.796 60.9493C158.915 60.8949 158.967 60.7943 158.973 60.756L158.025 60.6412Z" fill="#101E3D"/>
<path d="M128.402 84.3925C127.873 76.4815 133.358 68.4657 141.738 64.8998C148.34 62.089 156.39 61.803 165.668 64.0441C167.684 53.7048 175.617 44.1265 187.521 37.6994C201.317 30.2515 216.719 28.9327 228.713 34.1758C242.59 40.2364 250.894 55.8773 247.227 69.0436L246.257 68.7738C249.794 56.0726 241.744 40.9653 228.312 35.098C216.596 29.9797 201.527 31.2804 188 38.5854C176.167 44.9742 168.352 54.5101 166.562 64.7468L166.47 65.2804L165.944 65.1495C156.67 62.8239 148.658 63.0514 142.132 65.826C134.268 69.1725 128.916 76.9526 129.407 84.3261L128.402 84.3925Z" fill="#556CA1"/>
<path d="M28.9817 121.938L28.1118 121.429C30.3267 117.654 34.3456 115.036 39.1397 114.247C43.4627 113.538 47.681 114.438 50.8905 116.735C49.6482 107.091 49.0865 94.9956 54.3256 84.5093C59.2385 74.6794 71.1444 66.5328 82.573 69.9154C92.3707 72.8189 97.9984 82.5743 102.388 92.0196L102.404 91.4156L102.907 91.3935L103.411 91.4055L103.28 96.4111L102.378 94.4137C97.942 84.5939 92.3666 73.8659 82.2871 70.8799C71.3759 67.6442 59.9533 75.4989 55.2276 84.9583C49.8858 95.648 50.7254 108.14 52.0543 117.829L52.2356 119.154L51.2248 118.278C48.1462 115.608 43.801 114.498 39.3048 115.241C34.8067 115.98 31.0435 118.423 28.9817 121.938Z" fill="#556CA1"/>
<path d="M221.13 200.793C217.389 200.793 213.646 200.197 210.847 197.769C205.411 193.053 206.584 184.246 210.16 177.612C212.959 172.417 216.356 168.796 220.262 166.847C225.163 164.403 231.063 164.912 234.608 168.08L233.94 168.831C230.686 165.929 225.25 165.486 220.711 167.747C216.996 169.602 213.744 173.081 211.046 178.089C207.66 184.371 206.49 192.656 211.507 197.008C215.055 200.086 220.427 199.963 225.177 199.607C236.803 198.733 248.556 197.461 260.107 195.82L260.248 196.816C248.677 198.459 236.902 199.738 225.252 200.612C223.911 200.71 222.519 200.791 221.13 200.793Z" fill="#556CA1"/>
<path d="M115.612 158.272L115.445 157.189C113.943 147.508 110.534 140.487 105.315 136.317C99.7381 131.861 91.5672 130.322 82.8911 132.09C75.0525 133.689 67.8905 137.539 60.96 141.26L60.4849 140.374C67.4777 136.617 74.7062 132.733 82.6898 131.104C91.6539 129.273 100.133 130.888 105.944 135.529C111.171 139.703 114.638 146.575 116.263 155.96L116.643 155.517L117.411 156.17L115.612 158.272Z" fill="#94A6CE"/>
<path d="M16.959 145.474C11.9876 145.474 6.98208 143.275 3.80277 139.448C-0.33699 134.464 -1.19473 126.944 1.71276 121.155C2.8222 118.948 4.36251 117.138 6.17063 115.924C9.61573 113.615 14.5549 113.168 19.7296 114.7C28.4601 117.289 35.7711 124.602 38.3544 133.335L37.39 133.621C34.8993 125.208 27.856 118.161 19.4416 115.666C14.5549 114.221 9.92181 114.617 6.73042 116.76C5.06726 117.879 3.64166 119.554 2.61075 121.608C-0.123581 127.049 0.683859 134.12 4.57596 138.805C8.46805 143.489 15.2737 145.583 21.1209 143.889L21.4007 144.856C19.9591 145.275 18.461 145.474 16.959 145.474Z" fill="#94A6CE"/>
</svg>
